<svg version="1.2" baseProfile="tiny-ps" xmlns="http://www.w3.org/2000/svg" viewBox="0 0 130 60" width="130" height="60">
	<title>cv-svg</title>
	<style>
		tspan { white-space:pre }
		.shp0 { fill: #f4fbff } 
		.shp1 { fill: #e4f6ff } 
		.shp2 { fill: #8fddc1 } 
		.shp3 { fill: #ffe07d } 
		.shp4 { fill: #407093 } 
		.shp5 { fill: #365e7d } 
		.shp6 { fill: #000000 } 
	</style>
	<g id="Layer">
		<g id="Layer">
			<g id="Layer">
				<g id="Layer">
					<g id="Layer">
						<g id="Layer">
							<g id="Layer">
								<g id="Layer">
									<g id="Layer">
										<path id="Layer" class="shp0" d="M85.36 59.12L44.64 59.12C43.27 59.12 42.16 58.01 42.16 56.64L42.16 3.36C42.16 1.99 43.27 0.88 44.64 0.88L85.36 0.88C86.73 0.88 87.84 1.99 87.84 3.36L87.84 56.64C87.84 58.01 86.73 59.12 85.36 59.12Z" />
									</g>
								</g>
							</g>
							<path id="Layer" class="shp1" d="M85.36 0.88L77.93 0.88C79.31 0.88 80.42 1.99 80.42 3.36L80.42 56.64C80.42 58.01 79.31 59.12 77.93 59.12L85.36 59.12C86.73 59.12 87.84 58.01 87.84 56.64L87.84 3.36C87.84 1.99 86.73 0.88 85.36 0.88L85.36 0.88Z" />
							<path id="Layer" class="shp2" d="M62.07 0.88L44.64 0.88C43.27 0.88 42.16 1.99 42.16 3.36L42.16 56.64C42.16 58.01 43.27 59.12 44.64 59.12L62.07 59.12L62.07 0.88Z" />
						</g>
					</g>
				</g>
			</g>
			<g id="Layer">
				<g id="Layer">
					<path id="Layer" class="shp3" d="M52.12 19.7C48.76 19.7 46.03 16.97 46.03 13.61C46.03 10.24 48.76 7.51 52.12 7.51C55.49 7.51 58.22 10.24 58.22 13.61C58.22 16.97 55.49 19.7 52.12 19.7Z" />
					<path id="Layer" class="shp4" d="M52.12 15.04C50.18 15.04 48.55 16.34 48.02 18.11C49.1 19.09 50.54 19.7 52.12 19.7C53.71 19.7 55.15 19.09 56.23 18.11C55.7 16.34 54.07 15.04 52.12 15.04Z" />
					<path id="Layer" class="shp5" d="M52.12 15.58C50.93 15.58 49.97 14.62 49.97 13.43C49.97 12.24 50.93 11.27 52.12 11.27C53.32 11.27 54.28 12.24 54.28 13.43C54.28 14.62 53.32 15.58 52.12 15.58Z" />
				</g>
			</g>
			<g id="Layer">
				<path id="Layer" class="shp3" d="M57.22 32.55L47.03 32.55C46.47 32.55 46.01 32.09 46.01 31.53L46.01 29.01C46.01 28.45 46.47 27.99 47.03 27.99L57.22 27.99C57.78 27.99 58.24 28.45 58.24 29.01L58.24 31.53C58.24 32.09 57.78 32.55 57.22 32.55Z" />
				<path id="Layer" class="shp3" d="M57.22 41.86L47.03 41.86C46.47 41.86 46.01 41.41 46.01 40.84L46.01 38.33C46.01 37.77 46.47 37.31 47.03 37.31L57.22 37.31C57.78 37.31 58.24 37.77 58.24 38.33L58.24 40.84C58.24 41.41 57.78 41.86 57.22 41.86Z" />
				<path id="Layer" class="shp3" d="M57.22 51.18L47.03 51.18C46.47 51.18 46.01 50.72 46.01 50.16L46.01 47.65C46.01 47.09 46.47 46.63 47.03 46.63L57.22 46.63C57.78 46.63 58.24 47.09 58.24 47.65L58.24 50.16C58.24 50.72 57.78 51.18 57.22 51.18Z" />
			</g>
		</g>
		<g id="Layer">
			<path id="Layer" class="shp6" d="M71.35 10.98C71.88 10.98 72.39 11.13 72.82 11.43C73.23 11.7 73.77 11.59 74.04 11.19C74.32 10.79 74.21 10.24 73.81 9.97C73.08 9.48 72.23 9.22 71.35 9.22C68.93 9.22 66.97 11.19 66.97 13.61C66.97 16.02 68.93 17.99 71.35 17.99C72.32 17.99 73.19 17.68 73.86 17.07C74 16.96 74.12 16.83 74.24 16.69C74.55 16.32 74.5 15.76 74.13 15.45C73.76 15.14 73.2 15.19 72.89 15.56C72.83 15.63 72.76 15.7 72.69 15.76C72.34 16.08 71.89 16.23 71.35 16.23C69.9 16.23 68.72 15.06 68.72 13.61C68.72 12.16 69.9 10.98 71.35 10.98L71.35 10.98Z" />
			<path id="Layer" class="shp6" d="M80.11 17.99L80.11 17.99C80.55 17.99 80.95 17.71 81.09 17.28L83.38 10.39C83.53 9.93 83.28 9.43 82.82 9.28C82.36 9.12 81.87 9.37 81.71 9.83L80.09 14.71L78.39 9.81C78.23 9.35 77.73 9.11 77.27 9.27C76.81 9.43 76.57 9.93 76.73 10.39L79.13 17.3C79.28 17.72 79.67 17.99 80.11 17.99L80.11 17.99Z" />
			<path id="Layer" class="shp6" d="M83.15 28.59L66.67 28.59C66.18 28.59 65.79 28.98 65.79 29.47C65.79 29.95 66.18 30.34 66.67 30.34L83.15 30.34C83.64 30.34 84.03 29.95 84.03 29.47C84.03 28.98 83.64 28.59 83.15 28.59Z" />
			<path id="Layer" class="shp6" d="M66.67 35.74L74.91 35.74C75.4 35.74 75.79 35.34 75.79 34.86C75.79 34.37 75.4 33.98 74.91 33.98L66.67 33.98C66.18 33.98 65.79 34.37 65.79 34.86C65.79 35.34 66.18 35.74 66.67 35.74Z" />
			<path id="Layer" class="shp6" d="M83.15 39.37L66.67 39.37C66.18 39.37 65.79 39.77 65.79 40.25C65.79 40.74 66.18 41.13 66.67 41.13L83.15 41.13C83.64 41.13 84.03 40.74 84.03 40.25C84.03 39.77 83.64 39.37 83.15 39.37Z" />
			<path id="Layer" class="shp6" d="M84.03 45.64C84.03 45.16 83.64 44.76 83.15 44.76L66.67 44.76C66.18 44.76 65.79 45.16 65.79 45.64C65.79 46.13 66.18 46.52 66.67 46.52L83.15 46.52C83.64 46.52 84.03 46.13 84.03 45.64L84.03 45.64Z" />
			<path id="Layer" class="shp6" d="M66.67 50.3C66.18 50.3 65.79 50.7 65.79 51.18C65.79 51.67 66.18 52.06 66.67 52.06L74.91 52.06C75.4 52.06 75.79 51.67 75.79 51.18C75.79 50.7 75.4 50.3 74.91 50.3L66.67 50.3Z" />
			<path id="Layer" class="shp6" d="M83.15 23.19L66.67 23.19C66.18 23.19 65.79 23.59 65.79 24.07C65.79 24.56 66.18 24.95 66.67 24.95L83.15 24.95C83.64 24.95 84.03 24.56 84.03 24.07C84.03 23.59 83.64 23.19 83.15 23.19Z" />
			<path id="Layer" fill-rule="evenodd" class="shp6" d="M87.84 12.34C87.36 12.34 86.96 11.94 86.96 11.46L86.96 3.36C86.96 2.48 86.24 1.76 85.36 1.76L62.95 1.76L62.95 58.24L85.36 58.24C86.24 58.24 86.96 57.52 86.96 56.64L86.96 15.57C86.96 15.08 87.36 14.69 87.84 14.69C88.33 14.69 88.72 15.08 88.72 15.57L88.72 56.64C88.72 58.49 87.21 60 85.36 60L44.64 60C42.79 60 41.28 58.49 41.28 56.64L41.28 3.36C41.28 1.51 42.79 0 44.64 0L85.36 0C87.21 0 88.72 1.51 88.72 3.36L88.72 11.46C88.72 11.94 88.33 12.34 87.84 12.34ZM61.19 1.76L44.64 1.76C43.76 1.76 43.04 2.48 43.04 3.36L43.04 56.64C43.04 57.52 43.76 58.24 44.64 58.24L61.19 58.24L61.19 1.76Z" />
			<path id="Layer" fill-rule="evenodd" class="shp6" d="M45.15 13.61C45.15 9.76 48.28 6.64 52.12 6.64C55.97 6.64 59.1 9.76 59.1 13.61C59.1 17.46 55.96 20.58 52.12 20.58C48.29 20.58 45.15 17.45 45.15 13.61ZM55.18 17.83C54.81 17.09 54.18 16.49 53.41 16.18C53.02 16.36 52.58 16.46 52.12 16.46C51.67 16.46 51.23 16.36 50.84 16.18C50.07 16.49 49.44 17.09 49.07 17.83C49.93 18.45 50.99 18.82 52.12 18.82C53.26 18.82 54.32 18.45 55.18 17.83ZM52.12 8.39C49.25 8.39 46.91 10.73 46.91 13.61C46.91 14.68 47.24 15.68 47.8 16.51C48.23 15.85 48.8 15.3 49.47 14.9C49.23 14.46 49.09 13.96 49.09 13.43C49.09 11.76 50.45 10.39 52.12 10.39C53.8 10.39 55.16 11.76 55.16 13.43C55.16 13.96 55.02 14.46 54.78 14.9C55.45 15.3 56.02 15.85 56.45 16.51C57.01 15.68 57.34 14.68 57.34 13.61C57.34 10.73 55 8.39 52.12 8.39ZM52.13 14.71C52.83 14.71 53.4 14.13 53.4 13.43C53.4 12.73 52.83 12.15 52.13 12.15C51.42 12.15 50.85 12.73 50.85 13.43C50.85 14.13 51.42 14.71 52.13 14.71Z" />
			<path id="Layer" fill-rule="evenodd" class="shp6" d="M47.03 33.42C45.98 33.42 45.13 32.57 45.13 31.53L45.13 29.01C45.13 27.97 45.98 27.11 47.03 27.11L57.22 27.11C58.27 27.11 59.12 27.97 59.12 29.01L59.12 31.53C59.12 32.57 58.27 33.42 57.22 33.42L47.03 33.42ZM46.89 31.53C46.89 31.6 46.95 31.67 47.03 31.67L57.22 31.67C57.3 31.67 57.36 31.6 57.36 31.53L57.36 29.01C57.36 28.94 57.3 28.87 57.22 28.87L47.03 28.87C46.95 28.87 46.89 28.94 46.89 29.01L46.89 31.53Z" />
			<path id="Layer" class="shp6" d="M47.03 42.74L47.92 42.74C48.4 42.74 48.8 42.35 48.8 41.86C48.8 41.38 48.4 40.98 47.92 40.98L47.03 40.98C46.95 40.98 46.89 40.92 46.89 40.84L46.89 38.33C46.89 38.25 46.95 38.19 47.03 38.19L57.22 38.19C57.3 38.19 57.36 38.25 57.36 38.33L57.36 40.84C57.36 40.92 57.3 40.98 57.22 40.98L52.03 40.98C51.54 40.98 51.15 41.38 51.15 41.86C51.15 42.35 51.54 42.74 52.03 42.74L57.22 42.74C58.27 42.74 59.12 41.89 59.12 40.84L59.12 38.33C59.12 37.28 58.27 36.43 57.22 36.43L47.03 36.43C45.98 36.43 45.13 37.28 45.13 38.33L45.13 40.84C45.13 41.89 45.98 42.74 47.03 42.74L47.03 42.74Z" />
			<path id="Layer" fill-rule="evenodd" class="shp6" d="M47.03 52.06C45.98 52.06 45.13 51.21 45.13 50.16L45.13 47.65C45.13 46.6 45.98 45.75 47.03 45.75L57.22 45.75C58.27 45.75 59.12 46.6 59.12 47.65L59.12 50.16C59.12 51.21 58.27 52.06 57.22 52.06L47.03 52.06ZM46.89 50.16C46.89 50.24 46.95 50.3 47.03 50.3L57.22 50.3C57.3 50.3 57.36 50.24 57.36 50.16L57.36 47.65C57.36 47.57 57.3 47.51 57.22 47.51L47.03 47.51C46.95 47.51 46.89 47.57 46.89 47.65L46.89 50.16Z" />
		</g>
	</g>
</svg>