<svg version="1.2" baseProfile="tiny-ps" xmlns="http://www.w3.org/2000/svg" viewBox="0 0 512 512" width="512" height="512">
	<title>email-svg</title>
	<style>
		tspan { white-space:pre }
		.shp0 { fill: #2196f3 } 
		.shp1 { fill: #eceff1 } 
		.shp2 { fill: #64b5f6 } 
		.shp3 { fill: #90a4ae } 
	</style>
	<path id="Layer" class="shp0" d="M512 192.56L512 227.95L275.84 356.62C263.47 363.3 248.53 363.3 236.16 356.62L0 227.95L0 192.56C0 174.08 9.81 157.16 25.39 148.48L233.39 32.5C247.47 24.71 264.53 24.71 278.61 32.5L486.61 148.48C502.19 157.16 512 174.08 512 192.56L512 192.56Z" />
	<path id="Layer" class="shp1" d="M448 61.22C448 27.4 421.74 0 389.33 0L122.67 0C90.26 0 64 27.4 64 61.22L64 446.78C64 455.99 71.17 463.47 80 463.47L432 463.47C440.83 463.47 448 455.99 448 446.78L448 61.22Z" />
	<path id="Layer" class="shp2" d="M512 227.95L512 461.91C512 489.52 490.45 512 464 512L48 512C21.55 512 0 489.52 0 461.91L0 227.95L236.16 356.62C248.53 363.3 263.47 363.3 275.84 356.62L512 227.95Z" />
	<g id="Layer">
		<path id="Layer" class="shp3" d="M341.33 222.61L170.67 222.61C158.89 222.61 149.33 212.64 149.33 200.35C149.33 188.06 158.89 178.09 170.67 178.09L341.33 178.09C353.11 178.09 362.67 188.06 362.67 200.35C362.67 212.64 353.11 222.61 341.33 222.61Z" />
		<path id="Layer" class="shp3" d="M256 133.57L170.67 133.57C158.89 133.57 149.33 123.59 149.33 111.3C149.33 99.02 158.89 89.04 170.67 89.04L256 89.04C267.78 89.04 277.33 99.02 277.33 111.3C277.33 123.59 267.78 133.57 256 133.57Z" />
	</g>
</svg>