<svg version="1.2" baseProfile="tiny-ps" xmlns="http://www.w3.org/2000/svg" viewBox="0 0 95 60" width="95" height="60">
	<title>email-svg</title>
	<style>
		tspan { white-space:pre }
		.shp0 { fill: #2196f3 } 
		.shp1 { fill: #eceff1 } 
		.shp2 { fill: #64b5f6 } 
		.shp3 { fill: #90a4ae } 
	</style>
	<path id="Layer" class="shp0" d="M95 22.57L95 26.71L67.32 41.79C65.88 42.57 64.12 42.57 62.68 41.79L35 26.71L35 22.57C35 20.4 36.15 18.42 37.98 17.4L62.35 3.81C64 2.9 66 2.9 67.65 3.81L92.02 17.4C93.85 18.42 95 20.4 95 22.57L95 22.57Z" />
	<path id="Layer" class="shp1" d="M87.5 7.17C87.5 3.21 84.42 0 80.62 0L49.38 0C45.58 0 42.5 3.21 42.5 7.17L42.5 52.36C42.5 53.44 43.34 54.31 44.38 54.31L85.63 54.31C86.66 54.31 87.5 53.44 87.5 52.36L87.5 7.17Z" />
	<path id="Layer" class="shp2" d="M95 26.71L95 54.13C95 57.37 92.47 60 89.38 60L40.63 60C37.53 60 35 57.37 35 54.13L35 26.71L62.68 41.79C64.12 42.57 65.88 42.57 67.32 41.79L95 26.71Z" />
	<g id="Layer">
		<path id="Layer" class="shp3" d="M75 26.09L55 26.09C53.62 26.09 52.5 24.92 52.5 23.48C52.5 22.04 53.62 20.87 55 20.87L75 20.87C76.38 20.87 77.5 22.04 77.5 23.48C77.5 24.92 76.38 26.09 75 26.09Z" />
		<path id="Layer" class="shp3" d="M65 15.65L55 15.65C53.62 15.65 52.5 14.48 52.5 13.04C52.5 11.6 53.62 10.43 55 10.43L65 10.43C66.38 10.43 67.5 11.6 67.5 13.04C67.5 14.48 66.38 15.65 65 15.65Z" />
	</g>
</svg>